M48
;Layer_Color=9474304
;FILE_FORMAT=2:5
INCH,LZ
;TYPE=PLATED
T1F00S00C0.00787
T2F00S00C0.00984
T3F00S00C0.01968
T4F00S00C0.02756
T5F00S00C0.03937
%
T01
X-0001378Y0133957
X0002953
Y0138287
X-0001378
X0034449Y0183071
X0042913Y0194291
X0063583Y0182874
X0013091Y0265945
X0016339Y0270177
X-0003642Y0273524
X0001772Y0279034
X-001437Y0275886
T02
X-007126Y0140847
X-006565Y0190551
X-0078642Y0190157
X-0086811Y0189764
X-0026181Y0162402
X-002628Y015561
X-0023622Y0125689
X0010242Y0123431
X0030217Y0126673
X0065653Y0141838
X0063976Y0175492
X0056201Y0179528
X0055908Y0190167
X0056004Y0199803
X0018209Y0199803
X0011909Y0184655
X0011811Y0180217
X0016929Y0175591
X0027461Y0182972
X-000748Y0211713
X-0104429Y0175886
X-009124Y0125689
X-0104232Y0221457
X-0064468Y0224016
X-0039075Y0234646
X-0025098Y0227362
X-0011811Y0241339
X-0012106Y0250689
X-0012008Y0257283
X0000984Y024498
X0003937Y0238583
X-0001969Y0238398
X0022736Y0238878
X0026378Y0224705
X0042717Y0217618
X0041732Y0252624
X0041634Y026191
X0066339Y026752
X-000689Y021566
X0071949Y0224311
X0072067Y022935
T03
X0086221Y0141535
X-0014075Y0126181
X-0000197Y0107579
X-0010827Y0180217
X-0010729Y0184655
T04
X005813Y022435
X006313
Y022935
Y023435
X005813
Y022935
Y023935
X006313
Y024435
X005813
T05
X-0074735Y0220256
Y0230256
Y0240256
Y0250256
M30
